<svg width="174" height="39" viewBox="0 0 174 39" fill="none" xmlns="http://www.w3.org/2000/svg">
<path d="M11.2457 37.6985C5.04732 37.6985 0 32.6316 0 26.4033C0 20.175 5.04343 15.1082 11.2457 15.1082C18.2684 15.1082 31.6916 19.5058 31.6916 26.4033C31.6916 33.3009 18.2645 37.6985 11.2457 37.6985ZM11.2457 17.6003C6.40442 17.6003 2.46533 21.5491 2.46533 26.3994C2.46533 31.2498 6.40442 35.1985 11.2457 35.1985C14.6404 35.1985 19.1977 34.1356 22.8491 32.4899C26.9009 30.6632 29.2263 28.4427 29.2263 26.3994C29.2263 24.3522 26.9009 22.1357 22.8491 20.3089C19.1938 18.6633 14.6404 17.6003 11.2457 17.6003Z" fill="black"/>
<path d="M123.95 19.381C124.012 19.3889 124.079 19.3692 124.129 19.3259C124.18 19.2826 124.207 19.2236 124.211 19.1567L124.301 16.9212C124.312 16.626 124.11 16.3701 123.825 16.319C121.651 15.9097 119.668 16.933 118.659 18.6332V17.1809C118.659 16.8543 118.398 16.5906 118.074 16.5906H116.239C115.916 16.5906 115.655 16.8543 115.655 17.1809V30.9639C115.655 31.2905 115.916 31.5542 116.239 31.5542H118.074C118.398 31.5542 118.659 31.2905 118.659 30.9639V24.0409C118.659 22.4627 119.009 21.2898 119.703 20.5499C120.712 19.4715 122.571 19.2275 123.95 19.381Z" fill="black"/>
<path d="M62.9314 31.554C62.6085 31.554 62.3479 31.2903 62.3479 30.9637V17.1813C62.3479 16.8546 62.6085 16.5909 62.9314 16.5909H64.7637C65.0866 16.5909 65.3473 16.8546 65.3473 17.1813V30.9637C65.3473 31.2903 65.0866 31.554 64.7637 31.554H62.9314ZM63.8456 13.4857C62.7252 13.4857 61.811 12.553 61.811 11.4235C61.811 10.294 62.7291 9.36127 63.8456 9.36127C64.9699 9.36127 65.8841 10.3019 65.8841 11.4235C65.8841 12.5609 64.9582 13.4857 63.8456 13.4857Z" fill="black"/>
<path d="M127.457 31.5542C127.134 31.5542 126.874 31.2905 126.874 30.9638V17.1807C126.874 16.854 127.134 16.5903 127.457 16.5903H129.291C129.614 16.5903 129.875 16.854 129.875 17.1807V30.9638C129.875 31.2905 129.614 31.5542 129.291 31.5542H127.457Z" fill="black"/>
<path d="M157.951 31.5504C157.784 31.5504 157.628 31.4796 157.515 31.3537L151.097 24.0988V30.9603C151.097 31.2868 150.836 31.5504 150.513 31.5504H148.68C148.357 31.5504 148.096 31.2868 148.096 30.9603V9.91563C148.096 9.58908 148.357 9.32549 148.68 9.32549H150.513C150.836 9.32549 151.097 9.58908 151.097 9.91563V22.8241L157.029 16.8007C157.138 16.6905 157.286 16.6276 157.441 16.6276H160.804C160.898 16.6276 160.983 16.6866 161.018 16.7731C161.053 16.8636 161.034 16.962 160.964 17.0289L154.46 23.4261L161.575 31.157C161.637 31.2239 161.657 31.3262 161.618 31.4127C161.579 31.4993 161.497 31.5544 161.404 31.5544H157.951V31.5504V31.5504Z" fill="black"/>
<path d="M98.4483 31.5544C98.125 31.5544 97.8641 31.2907 97.8641 30.9641V22.7399C97.8641 20.5757 96.8125 19.0686 94.6588 19.0686C91.9364 19.0686 90.7174 21.0715 90.7174 23.8575V30.9641C90.7174 31.2907 90.4564 31.5544 90.1332 31.5544H88.2988C87.9755 31.5544 87.7146 31.2907 87.7146 30.9641V9.91574C87.7146 9.58913 87.9755 9.32549 88.2988 9.32549H90.1332C90.4564 9.32549 90.7174 9.58913 90.7174 9.91574V18.6082C91.6287 16.9869 93.5955 16.2196 95.4572 16.2196C98.6741 16.2196 100.863 18.2776 100.863 21.9608V30.9641C100.863 31.2907 100.602 31.5544 100.279 31.5544H98.4483Z" fill="black"/>
<path d="M47.5306 31.5504C47.2081 31.5504 46.9478 31.2868 46.9478 30.9603V9.91563C46.9478 9.58908 47.2081 9.32549 47.5306 9.32549H49.5432C49.8657 9.32549 50.126 9.58908 50.126 9.91563V28.521H59.5132C59.8357 28.521 60.096 28.7846 60.096 29.1111V30.9642C60.096 31.2908 59.8357 31.5544 59.5132 31.5544H47.5306V31.5504Z" fill="black"/>
<path d="M145.525 29.1484C145.637 29.2586 145.696 29.4122 145.696 29.5736C145.692 29.7311 145.626 29.8846 145.513 29.9949C144.086 31.3651 142.322 31.9518 140.246 31.9518C135.819 31.9518 132.519 28.916 132.519 24.1557C132.519 19.6198 135.558 16.2651 140.246 16.2651C142.24 16.2651 144.079 16.8951 145.548 18.2653C145.668 18.3795 145.738 18.537 145.738 18.7024C145.735 18.8677 145.668 19.0252 145.548 19.1394L144.238 20.3482C144.02 20.549 143.69 20.5569 143.465 20.364C142.563 19.5883 141.385 19.1119 140.126 19.1119C137.218 19.1119 135.698 21.4901 135.698 24.2148C135.698 26.8765 137.471 29.1011 140.277 29.1011C141.428 29.1011 142.547 28.7113 143.437 27.9041C143.562 27.7978 143.659 27.7112 143.865 27.7112C144.028 27.7112 144.172 27.7781 144.277 27.8844L145.525 29.1484Z" fill="black"/>
<path d="M166.012 20.5993C166.012 19.8047 166.818 19.073 168.336 19.073C169.383 19.073 170.353 19.5136 171.073 20.1548C171.279 20.3396 171.591 20.3554 171.812 20.1823L173.14 19.1674C173.268 19.0691 173.35 18.9235 173.37 18.7622C173.389 18.6009 173.338 18.4397 173.233 18.3177C172.128 16.996 170.536 16.2289 168.496 16.2289C165.498 16.2289 162.836 17.9047 162.836 20.9061C162.836 22.3182 163.497 23.9192 165.693 24.6863C167.931 25.4691 170.808 25.4731 170.808 27.3376C170.808 28.5295 169.348 29.0841 167.974 29.0841C166.9 29.0841 165.627 28.5963 164.739 27.7349C164.525 27.5264 164.194 27.5146 163.965 27.7034L162.707 28.7498C162.587 28.8521 162.509 28.9976 162.497 29.1589C162.485 29.3202 162.536 29.4775 162.641 29.5955C163.898 31.0313 165.736 31.9518 167.943 31.9518C171.112 31.9518 174 30.398 174 27.196C173.992 21.3624 166.012 23.758 166.012 20.5993Z" fill="black"/>
<path d="M108.916 27.051C108.897 26.6533 108.885 26.2438 108.885 25.8304V19.2663H112.266C112.589 19.2663 112.85 19.0025 112.85 18.6756V17.1951C112.85 16.8683 112.589 16.6044 112.266 16.6044H108.885V13.0606C108.885 12.7337 108.624 12.4699 108.301 12.4699H106.467C106.143 12.4699 105.882 12.7337 105.882 13.0606V16.6044H103.269C102.946 16.6044 102.685 16.8683 102.685 17.1951V18.6756C102.685 19.0025 102.946 19.2663 103.269 19.2663H105.882V26.8266C105.882 28.6497 105.945 30.1224 107.183 31.0911C108.581 32.1857 111.218 32.103 112.565 31.5793C112.791 31.4927 112.939 31.2722 112.939 31.0281V29.0475C112.939 28.9687 112.9 28.8978 112.838 28.8545C112.776 28.8112 112.698 28.7994 112.624 28.8269C110.762 29.5121 109.021 29.1695 108.916 27.051Z" fill="black"/>
<path d="M81.6168 16.6024C81.2936 16.6024 81.0328 16.8659 81.0328 17.1922V18.5524C79.892 17.0388 77.8714 16.2289 76.0182 16.2289C71.4124 16.2289 68.4924 19.6965 68.4924 24.0762C68.4924 28.4755 71.6849 31.7386 76.0182 31.7386C77.9648 31.7386 79.9232 30.9601 81.0328 29.2735C81.0328 31.3415 81.6051 36.1575 75.8936 36.1575C74.0793 36.189 72.3507 35.4931 71.062 34.2587C70.9452 34.1446 70.7817 34.0857 70.6221 34.0975C70.4586 34.1093 70.3067 34.1879 70.2055 34.3176L69.0141 35.8194C68.8156 36.0671 68.8506 36.4327 69.092 36.6372C70.8596 38.1468 72.8919 39 75.9559 39C80.6357 39 84.0345 35.9728 84.0345 31.3101V17.1961C84.0345 16.8698 83.7737 16.6064 83.4505 16.6064L81.6168 16.6024ZM76.353 28.8922C73.4252 28.8922 71.6733 26.9579 71.6733 24.0762C71.6733 21.0136 73.6121 19.0714 76.353 19.0714C79.1095 19.0714 81.0328 21.0293 81.0328 24.0762C81.0328 26.9579 79.2847 28.8922 76.353 28.8922Z" fill="black"/>
<path d="M4.18868 17.6065C4.70265 15.6083 5.76954 12.6778 6.26794 11.4466C8.52632 5.8413 11.1001 2.4939 13.156 2.4939C15.7843 2.4939 17.5832 7.93788 18.2724 10.5104C19.0823 10.2665 19.8805 10.0502 20.6515 9.87318C19.5651 5.7941 17.3418 0 13.1404 0C8.30048 0 4.45345 8.34699 2.20675 15.6909C1.13597 19.1957 0.423417 22.4724 0.143066 24.506C0.614211 21.7289 2.09383 19.298 4.18868 17.6065Z" fill="black"/>
<path d="M19.4393 16.4455C20.3156 16.7018 21.1879 16.9897 22.0446 17.313C21.8412 15.6568 21.5674 13.9532 21.2192 12.2891C20.4525 12.4626 19.6506 12.6834 18.8291 12.9319C19.0677 14.0912 19.2711 15.2703 19.4393 16.4455Z" fill="black"/>
<path d="M22.3295 20.0741C21.5052 19.7274 20.6458 19.4082 19.7669 19.1206C20.0911 22.3435 20.1536 25.2984 19.9896 27.1738C19.8138 29.1989 18.9349 31.0231 17.6145 32.4218C19.1302 30.9916 20.888 28.801 22.517 26.3701C22.5834 24.7508 22.5365 22.5365 22.3295 20.0741Z" fill="black"/>
<path d="M19.8823 33.6457C22.3683 31.0709 25.2356 27.0238 27.3326 23.0672C26.7802 22.5711 26.1149 22.0869 25.3407 21.6145C23.2359 25.6695 20.1974 29.9371 17.7581 32.2993C15.8673 34.13 13.7314 35.1969 11.1831 35.2047C13.9493 35.2165 17.2095 34.5236 19.8823 33.6457Z" fill="black"/>
<path d="M11.2457 37.6985C5.04732 37.6985 0 32.6316 0 26.4033C0 20.175 5.04343 15.1082 11.2457 15.1082C18.2684 15.1082 31.6916 19.5058 31.6916 26.4033C31.6916 33.3009 18.2645 37.6985 11.2457 37.6985ZM11.2457 17.6003C6.40442 17.6003 2.46533 21.5491 2.46533 26.3994C2.46533 31.2498 6.40442 35.1985 11.2457 35.1985C14.6404 35.1985 19.1977 34.1356 22.8491 32.4899C26.9009 30.6632 29.2263 28.4427 29.2263 26.3994C29.2263 24.3522 26.9009 22.1357 22.8491 20.3089C19.1938 18.6633 14.6404 17.6003 11.2457 17.6003Z" fill="black"/>
<path d="M11.2508 15.1094C11.791 15.1094 12.374 15.1368 12.9841 15.1918C17.1152 13.307 21.806 11.8189 24.8528 11.8189C25.7273 11.8267 26.9048 11.9406 27.4411 12.6356C27.9269 13.2678 27.8803 14.3515 27.752 15.1486C27.5577 16.3737 27.0719 17.8226 26.3957 19.3697C27.1574 19.8252 27.9036 20.3514 28.436 20.7833C29.3065 18.875 29.94 17.0609 30.181 15.5413C30.488 13.6055 30.1926 12.0741 29.291 10.9943C28.2145 9.69851 26.5317 9.33727 24.8567 9.32549C21.0637 9.32549 15.3353 11.2377 10.594 13.5701C8.48376 14.6028 6.48232 15.8554 4.60913 17.2887C6.47844 15.9222 8.77135 15.1094 11.2508 15.1094Z" fill="black"/>
<path d="M128.372 13.4816C127.252 13.4816 126.338 12.5498 126.338 11.4214C126.338 10.2931 127.256 9.36127 128.372 9.36127C129.496 9.36127 130.411 10.3009 130.411 11.4214C130.407 12.5577 129.485 13.4816 128.372 13.4816Z" fill="black"/>
</svg>
